<?xml version="1.0" standalone="no"?><!DOCTYPE svg PUBLIC "-//W3C//DTD SVG 1.1//EN" "http://www.w3.org/Graphics/SVG/1.1/DTD/svg11.dtd"><svg class="icon" width="200px" height="200.00px" viewBox="0 0 1024 1024" version="1.1" xmlns="http://www.w3.org/2000/svg"><path fill="#333333" d="M846.933333 430.933333h-70.4v-162.133333c0-12.8-8.533333-21.333333-21.333333-21.333333h-2.133333l-70.4-34.133334v-106.666666c0-23.466667-19.2-42.666667-42.666667-42.666667h-422.4c-23.466667 0-42.666667 19.2-42.666667 42.666667v806.4h-49.066666c-12.8 0-21.333333 8.533333-21.333334 21.333333v4.266667c0 12.8 8.533333 21.333333 21.333334 21.333333h605.866666c12.8 0 21.333333-8.533333 21.333334-21.333333v-4.266667c0-12.8-8.533333-21.333333-21.333334-21.333333h-49.066666v-437.333334h46.933333v279.466667c2.133333 51.2 42.666667 89.6 91.733333 89.6 51.2 0 91.733333-40.533333 91.733334-91.733333h4.266666v-253.866667c0-38.4-32-68.266667-70.4-68.266667z m-211.2-206.933333v162.133333c0 12.8-8.533333 21.333333-21.333333 21.333334h-371.2c-12.8 0-21.333333-8.533333-21.333333-21.333334v-256c0-12.8 8.533333-21.333333 21.333333-21.333333h371.2c12.8 0 21.333333 10.666667 21.333333 21.333333v93.866667z m91.733334 206.933333h-46.933334V258.133333l46.933334 23.466667v149.333333z m138.666666 134.4V755.2c0 25.6-21.333333 46.933333-46.933333 46.933333-25.6 0-46.933333-21.333333-46.933333-46.933333v-277.333333h70.4c12.8 0 23.466667 10.666667 23.466666 23.466666v64z" /></svg>