<?xml version="1.0" standalone="no"?><!DOCTYPE svg PUBLIC "-//W3C//DTD SVG 1.1//EN" "http://www.w3.org/Graphics/SVG/1.1/DTD/svg11.dtd"><svg class="icon" width="200px" height="200.00px" viewBox="0 0 1024 1024" version="1.1" xmlns="http://www.w3.org/2000/svg"><path fill="" d="M903.895063 607.960539c-15.624862-34.429137-10.085706-69.966515-4.712325-104.32709 8.247848-53.117778 6.102998-118.208239-79.583546-156.314115 5.65479-20.267603 31.389918-43.550888 13.997805-51.7752l-101.993952-48.476061c-22.246677-10.604522-80.45438-8.318456-87.24197 5.608741-6.810103 13.927197-25.545816 42.960441 22.058388 53.777811 47.650253 10.864442 92.049462 65.914222 92.049462 65.914222 16.048511 15.364943 35.867906 18.452257 48.829102 24.791639 47.933709 23.424502 44.728714 46.566572 45.481867 97.328699 0.565888 39.425941-13.574157 87.453794 9.403161 138.121777 30.94171 68.317968 46.87254 122.496915 20.194948 148.301627-32.757055 31.79003-77.014024 21.681812-104.915491 3.393283-37.658691-24.672936-52.364625-84.391039-48.924269-156.597571 1.933025-40.886199 3.983731-83.164095-8.29492-119.243825-27.14729-79.936587-70.980611-68.860321-74.798567-68.860321l-36.998659-0.047072L608.446098 156.056242c0-16.58984-14.517645-30.16502-31.343869-30.16502L228.347197 125.891222c-16.84976 0-30.565133 13.574157-30.565133 30.16502l0 669.656693-41.146119 0c0 0-30.541597 0-30.541597 30.163997l0 42.231847 30.541597 0 41.146119 0 30.565133 0 348.755032 0 30.589692 0 42.630936 0 30.565133 0 0-42.231847c0 0 0.754177-30.163997-29.810956-30.163997l-42.630936 0L608.446098 487.843834l36.669154 0.023536c4.476965 0.094144 18.381649 1.885953 31.247678 39.780005 8.625448 25.381064 6.90527 60.258409 5.185093 97.233532-3.417843 70.416769-7.212262 150.281725 62.119803 195.623399 27.761274 18.193361 58.066487 27.195386 87.430258 27.195386 34.830273 0 58.160631-6.693446 84.036975-31.766494C983.618802 749.758032 920.768359 645.100414 903.895063 607.960539M778.829649 357.829711c-8.43716 0-15.294334-6.739495-15.294334-15.08251 0-8.318456 6.857175-15.08251 15.294334-15.08251 8.483208 0 15.270798 6.763031 15.270798 15.08251C794.100448 351.089194 787.312858 357.829711 778.829649 357.829711M270.34266 226.164996c0-15.364943 12.7023-27.926026 28.302603-27.926026l209.714326 0c15.554254 0 28.302603 12.561084 28.302603 27.926026l0 161.427576c0 15.341407-12.748349 27.926026-28.302603 27.926026L298.645263 415.518598c-15.601326 0-28.302603-12.58462-28.302603-27.926026L270.34266 226.164996z" /></svg>