<?xml version="1.0" standalone="no"?><!DOCTYPE svg PUBLIC "-//W3C//DTD SVG 1.1//EN" "http://www.w3.org/Graphics/SVG/1.1/DTD/svg11.dtd"><svg class="icon" width="200px" height="199.80px" viewBox="0 0 1025 1024" version="1.1" xmlns="http://www.w3.org/2000/svg"><path fill="#333333" d="M1023.52 449.792c-0.832-19.04-1.664-38.112-2.496-57.12-3.84-24.192-2.432-48.864-6.72-72.128-2.016-12.864-4-25.792-5.984-38.656-7.04-32.224-13.856-62.752-24.96-90.528-20.576-51.52-52.32-94.88-96.544-122.752-94.752-59.68-235.68-68.992-390.72-68.576-15.456 0.256-30.944 0.48-46.4 0.736-9.472 0.352-18.944 0.672-28.448 1.024-6.72 0.32-13.472 0.64-20.224 0.992-18.208 1.408-36.448 2.816-54.624 4.256-9.888 1.184-19.808 2.304-29.696 3.488-22.176 4.128-44.128 6.464-64.864 11.712-95.648 24.32-151.648 60.192-195.872 136.16-21.984 37.728-31.232 84.16-41.92 133.472-2.24 16.64-4.48 33.248-6.72 49.888-1.568 19.776-3.168 39.584-4.736 59.36-0.256 6.72-0.48 13.472-0.768 20.224-0.576 18.208-1.152 36.448-1.728 54.624l0 55.616c0.32 17.12 0.672 34.272 1.024 51.36 0.384 11.904 0.832 23.808 1.248 35.68 0.48 8.064 1.024 16.128 1.504 24.192 3.456 21.664 2.624 43.744 6.464 64.64 5.92 31.936 9.824 62.816 18.72 91.296 24.096 77.344 60.384 129.088 124.256 166.624 28.512 16.768 62.624 27.52 98.56 36.672 13.312 2.656 26.592 5.312 39.904 8 16.64 2.24 33.28 4.48 49.888 6.72 21.28 1.664 42.592 3.328 63.872 4.992 7.232 0.256 14.496 0.48 21.696 0.736 15.328 0.416 30.624 0.832 45.92 1.248 7.648 0.096 15.296 0.192 22.944 0.256l31.904 0c20.8-0.32 41.6-0.64 62.4-1.024 5.984-0.256 12-0.48 17.952-0.736 17.792-1.152 35.616-2.336 53.408-3.52 15.232-1.664 30.432-3.328 45.664-4.992 34.208-6.336 66.848-10.912 97.056-20.448 65.536-20.672 114.208-53.728 149.696-104.288 27.328-38.88 41.376-88.288 53.408-142.688 2.592-16.864 5.184-33.76 7.712-50.624 1.856-20.096 3.648-40.256 5.504-60.384 0.32-7.232 0.672-14.464 1.024-21.696 0.64-16.448 1.312-32.928 2.016-49.408l0-13.248c0.096-7.648 0.16-15.296 0.256-22.976l0-54.88c-0.192-7.808-0.352-15.616-0.512-23.424zM829.088 715.072c0 68.096-53.408 68.096-61.856 68.096-6.304 0-63.136-0.64-63.136-68.96l0-267.552c0 0-0.896-10.304-11.36-10.304-8.672 0-20.736 0.032-29.312 0l0 350.08 23.616 0c9.664 0 17.504 7.808 17.504 17.408l0 25.664c0 9.6-7.84 18.24-17.504 18.24l-461.536 0c-9.696 0-17.504-8.64-17.504-18.24l0-25.664c0-9.6 7.84-17.408 17.504-17.408l24.32 0 0-568.128c0-23.36 19.04-42.304 42.56-42.304l328.512 0c23.488 0 42.528 18.912 42.528 42.304l0 177.216c15.264-0.096 43.424-0.352 50.432 0 28.576 1.504 31.392 12.928 31.392 38.112l0 277.92c0 18.912 11.36 24.96 21.984 24.96s21.024-5.984 21.024-24.96l0-339.936c0 0-0.928-3.552-4.48-3.552l-53.12 0c-1.28 0-4.128-0.864-4.096-3.328 0.064-2.784-0.224-7.328-0.256-13.888 0-0.8-0.096-2.464 1.28-3.904 10.496-11.552 27.328-24.608 37.472-37.088-12.224-13.344-33.632-31.136-43.168-40.128-6.688-6.336-10.624-18.72-1.568-28.16 9.472-9.888 23.712-6.272 29.92-0.128 11.04 10.976 47.104 42.592 68.384 61.568 10.816 9.664 10.432 18.912 10.432 18.912l0 393.152zM558.752 251.808l-205.6 0c-15.648 0-28.352 12.64-28.352 28.192l0 149.344c0 15.552 12.704 28.192 28.352 28.192l205.6 0c15.68 0 28.384-12.64 28.384-28.192l0-149.344c0-15.584-12.736-28.192-28.384-28.192z" /></svg>