<?xml version="1.0" standalone="no"?><!DOCTYPE svg PUBLIC "-//W3C//DTD SVG 1.1//EN" "http://www.w3.org/Graphics/SVG/1.1/DTD/svg11.dtd"><svg class="icon" width="200px" height="200.00px" viewBox="0 0 1024 1024" version="1.1" xmlns="http://www.w3.org/2000/svg"><path fill="" d="M93.95 422.367C91.169 241.666 202.37 79.869 367.503 24.825c185.149-62.272 368.074-5.56 482.611 149.565 103.973 141.225 105.641 348.058-1.112 489.839-78.396 103.972-161.241 204.609-244.641 304.69-62.828 75.06-130.661 72.836-192.933-4.448-76.173-94.521-153.457-188.485-226.849-285.23-57.269-75.061-93.41-159.573-90.629-256.874z m53.376 0c-7.228 70.056 20.572 141.225 65.608 201.83 79.508 108.421 165.689 211.837 250.202 316.922 33.36 41.7 69.5 32.804 100.081-4.448C644.95 835.479 730.574 736.51 805.634 630.869c99.525-140.669 92.296-308.026-7.784-437.574C702.773 70.974 540.42 22.602 394.191 72.642c-149.008 50.595-246.865 186.26-246.865 349.725z"  /><path fill="" d="M330.251 416.807c0-101.749 73.948-179.033 172.361-179.589 107.865-0.556 190.153 75.616 190.709 177.365 0.556 102.861-83.401 186.817-185.149 185.705-101.749-2.224-177.365-80.064-177.921-183.481z m181.257-126.213c-70.612-0.556-125.101 52.264-127.325 123.432-1.668 73.392 53.932 131.217 126.769 131.773 69.5 0.556 126.213-55.044 127.325-124.545 1.668-75.059-52.264-130.103-126.769-130.66z"  /></svg>